<svg id="visual" viewBox="0 0 960 540" width="960" height="540" xmlns="http://www.w3.org/2000/svg" xmlns:xlink="http://www.w3.org/1999/xlink" version="1.1"><rect x="0" y="0" width="960" height="540" fill="#f0f0f0"></rect><defs><linearGradient id="grad1_0" x1="43.8%" y1="0%" x2="100%" y2="100%"><stop offset="14.444444444444446%" stop-color="#f0f0f0" stop-opacity="1"></stop><stop offset="85.55555555555554%" stop-color="#f0f0f0" stop-opacity="1"></stop></linearGradient></defs><defs><linearGradient id="grad2_0" x1="0%" y1="0%" x2="56.3%" y2="100%"><stop offset="14.444444444444446%" stop-color="#f0f0f0" stop-opacity="1"></stop><stop offset="85.55555555555554%" stop-color="#f0f0f0" stop-opacity="1"></stop></linearGradient></defs><g transform="translate(960, 0)"><path d="M0 324C-59.1 316.9 -118.1 309.8 -162 280.6C-205.9 251.4 -234.5 200 -258.9 149.5C-283.4 99 -303.7 49.5 -324 0L0 0Z" fill="#965fcc"></path></g><g transform="translate(0, 540)"><path d="M0 -324C61.5 -318.3 123 -312.6 162 -280.6C201 -248.6 217.5 -190.2 240.8 -139C264 -87.8 294 -43.9 324 0L0 0Z" fill="#965fcc"></path></g></svg>