<svg id="visual" viewBox="0 0 960 540" width="960" height="540" xmlns="http://www.w3.org/2000/svg" xmlns:xlink="http://www.w3.org/1999/xlink" version="1.1"><rect x="0" y="0" width="960" height="540" fill="#FFFFFF"></rect><defs><linearGradient id="grad1_0" x1="43.8%" y1="0%" x2="100%" y2="100%"><stop offset="14.444444444444446%" stop-color="#ffffff" stop-opacity="1"></stop><stop offset="85.55555555555554%" stop-color="#ffffff" stop-opacity="1"></stop></linearGradient></defs><defs><linearGradient id="grad2_0" x1="0%" y1="0%" x2="56.3%" y2="100%"><stop offset="14.444444444444446%" stop-color="#ffffff" stop-opacity="1"></stop><stop offset="85.55555555555554%" stop-color="#ffffff" stop-opacity="1"></stop></linearGradient></defs><g transform="translate(960, 0)"><path d="M0 324C-36.4 300.3 -72.7 276.6 -107.2 258.7C-141.6 240.8 -174.1 228.8 -208.6 208.6C-243.1 188.4 -279.8 160.1 -299.3 124C-318.9 87.9 -321.5 43.9 -324 0L0 0Z" fill="#8F42A2"></path></g><g transform="translate(0, 540)"><path d="M0 -324C39.2 -314.5 78.4 -305 120.9 -291.9C163.5 -278.9 209.3 -262.3 229.1 -229.1C248.9 -195.9 242.6 -146.2 254.1 -105.2C265.5 -64.3 294.8 -32.1 324 0L0 0Z" fill="#8F42A2"></path></g></svg>