<svg id="visual" viewBox="0 0 960 540" width="960" height="540" xmlns="http://www.w3.org/2000/svg" xmlns:xlink="http://www.w3.org/1999/xlink" version="1.1"><rect x="0" y="0" width="960" height="540" fill="#f0f0f0"></rect><defs><linearGradient id="grad1_0" x1="43.8%" y1="100%" x2="100%" y2="0%"><stop offset="14.444444444444446%" stop-color="#f0f0f0" stop-opacity="1"></stop><stop offset="85.55555555555554%" stop-color="#f0f0f0" stop-opacity="1"></stop></linearGradient></defs><defs><linearGradient id="grad2_0" x1="0%" y1="100%" x2="56.3%" y2="0%"><stop offset="14.444444444444446%" stop-color="#f0f0f0" stop-opacity="1"></stop><stop offset="85.55555555555554%" stop-color="#f0f0f0" stop-opacity="1"></stop></linearGradient></defs><g transform="translate(960, 540)"><path d="M-324 0C-316.9 -59.1 -309.8 -118.1 -280.6 -162C-251.4 -205.9 -200 -234.5 -149.5 -258.9C-99 -283.4 -49.5 -303.7 0 -324L0 0Z" fill="#965fcc"></path></g><g transform="translate(0, 0)"><path d="M324 0C318.3 61.5 312.6 123 280.6 162C248.6 201 190.2 217.5 139 240.8C87.8 264 43.9 294 0 324L0 0Z" fill="#965fcc"></path></g></svg>